<svg height='300px' width='300px'  fill="#000000" xmlns="http://www.w3.org/2000/svg" viewBox="0 0 64 64" x="0px" y="0px"><path d="M48,19H41V16.564A6.1,6.1,0,0,0,44,11.5C44,7.916,40.411,5,36,5c-.179,0-.356.006-.529.016a10.741,10.741,0,0,0-15.118.191A8.236,8.236,0,0,0,16,4a7.771,7.771,0,0,0-8,7.5,7.306,7.306,0,0,0,3,5.835V58h1c-2.76,0-5,1.493-5,3.333C7,61.7,7.45,62,8,62H44c.55,0,1-.3,1-.667C45,59.493,42.76,58,40,58h1V50.5l10.578-5.289A8,8,0,0,0,56,38.056V27A8,8,0,0,0,48,19ZM10,11.5A5.773,5.773,0,0,1,16,6a6.2,6.2,0,0,1,3.907,1.333,1.019,1.019,0,0,0,.749.209,1,1,0,0,0,.673-.391A8.317,8.317,0,0,1,28,4a8.4,8.4,0,0,1,6.322,2.714,1.011,1.011,0,0,0,.848.331A8.264,8.264,0,0,1,36,7c3.309,0,6,2.019,6,4.5a4.285,4.285,0,0,1-2.481,3.633A7.327,7.327,0,0,1,36,16a14.4,14.4,0,0,1-1.763-.2A1,1,0,0,0,33,16.77V20a2,2,0,0,1-4,0V14a1,1,0,0,0-1-1H12a1,1,0,0,0-1,1v.539A5.173,5.173,0,0,1,10,11.5Zm3,8.134V15H27v5a4,4,0,0,0,8,0V17.927A9.968,9.968,0,0,0,36,18a9.57,9.57,0,0,0,3-.491V27.521A10.66,10.66,0,0,1,35.593,28c-4.6,0-4.6-1.84-9.2-1.84S21.8,28,17.2,28a10.414,10.414,0,0,1-4.2-.761v-7.6ZM51,38.068A3,3,0,0,1,49.241,40.8L41,44.545V24h7a3,3,0,0,1,3,3Z"></path></svg>