<svg height='300px' width='300px'  fill="#000000" xmlns="http://www.w3.org/2000/svg" xmlns:xlink="http://www.w3.org/1999/xlink" version="1.1" x="0px" y="0px" viewBox="0 0 96 96" style="enable-background:new 0 0 96 96;" xml:space="preserve"><g><path d="M44.3,90.7h47.1v-6H66.1C78.6,77.2,87,63.6,87,48C87,24.5,67.8,5.3,44.3,5.3S1.6,24.5,1.6,48S20.8,90.7,44.3,90.7z    M44.3,11.3C64.5,11.3,81,27.8,81,48S64.6,84.7,44.3,84.7S7.6,68.2,7.6,48S24.1,11.3,44.3,11.3z"></path><path d="M30,44.4c2.7,0,5.5-1,7.6-3.1c2-2,3.1-4.7,3.1-7.6s-1.1-5.5-3.1-7.6l0,0c-4.2-4.2-10.9-4.2-15.1,0c-2,2-3.1,4.7-3.1,7.6   s1.1,5.5,3.1,7.6C24.5,43.3,27.2,44.4,30,44.4z"></path><path d="M51.1,54.8c-4.2,4.2-4.2,10.9,0,15.1c2.1,2.1,4.8,3.1,7.6,3.1c2.7,0,5.5-1,7.6-3.1c4.2-4.2,4.2-10.9,0-15.1   C62,50.6,55.2,50.6,51.1,54.8z"></path><path d="M58.6,44.4c2.7,0,5.5-1,7.6-3.1c2-2,3.1-4.7,3.1-7.6s-1.1-5.5-3.1-7.6c-4.2-4.1-11-4.1-15.1,0c-2,2-3.1,4.7-3.1,7.6   s1.1,5.5,3.1,7.6C53.1,43.3,55.9,44.4,58.6,44.4z"></path><path d="M22.4,54.8c-4.2,4.2-4.2,10.9,0,15.1C24.5,72,27.2,73,30,73c2.7,0,5.5-1,7.6-3.1c4.2-4.2,4.2-10.9,0-15.1   C33.4,50.6,26.6,50.6,22.4,54.8z"></path><path d="M44.3,53c2.8,0,5-2.2,5-5s-2.2-5-5-5s-5,2.2-5,5S41.5,53,44.3,53z"></path></g></svg>