<svg height='300px' width='300px'  fill="#000000" xmlns="http://www.w3.org/2000/svg" xmlns:xlink="http://www.w3.org/1999/xlink" version="1.1" x="0px" y="0px" viewBox="0 0 100 100" enable-background="new 0 0 100 100" xml:space="preserve"><path fill-rule="evenodd" clip-rule="evenodd" d="M51.99,79.35v0.5v0.49c0,0.28,0.22,0.5,0.5,0.5h7.97c0.27,0,0.49-0.22,0.49-0.5  v-0.49v-0.5v-6.97c0-0.27-0.22-0.49-0.49-0.49h-7.47h-0.5c-0.28,0-0.5,0.22-0.5,0.49V79.35z M59.96,78.85c0,0.27-0.22,0.5-0.5,0.5  h-5.97c-0.28,0-0.5-0.23-0.5-0.5v-5.97c0-0.27,0.22-0.5,0.5-0.5h5.97c0.28,0,0.5,0.23,0.5,0.5V78.85z M61.95,79.35v0.5v0.49  c0,0.28,0.22,0.5,0.5,0.5h7.96c0.28,0,0.5-0.22,0.5-0.5v-0.49v-0.5v-6.97c0-0.27-0.22-0.49-0.5-0.49h-7.46h-0.5  c-0.28,0-0.5,0.22-0.5,0.49V79.35z M69.92,78.85c0,0.27-0.23,0.5-0.5,0.5h-5.98c-0.27,0-0.49-0.23-0.49-0.5v-5.97  c0-0.27,0.22-0.5,0.49-0.5h5.98c0.27,0,0.5,0.23,0.5,0.5V78.85z M71.91,79.35v0.5v0.49c0,0.28,0.22,0.5,0.5,0.5h7.96  c0.28,0,0.5-0.22,0.5-0.5v-0.49v-0.5v-6.97c0-0.27-0.22-0.49-0.5-0.49H72.9h-0.49c-0.28,0-0.5,0.22-0.5,0.49V79.35z M79.88,78.85  c0,0.27-0.23,0.5-0.5,0.5H73.4c-0.27,0-0.5-0.23-0.5-0.5v-5.97c0-0.27,0.23-0.5,0.5-0.5h5.98c0.27,0,0.5,0.23,0.5,0.5V78.85z   M81.87,79.35v0.5v0.49c0,0.28,0.22,0.5,0.5,0.5h7.96c0.28,0,0.5-0.22,0.5-0.5v-0.49v-0.5v-6.97c0-0.27-0.22-0.49-0.5-0.49h-7.47  h-0.49c-0.28,0-0.5,0.22-0.5,0.49V79.35z M89.83,78.85c0,0.27-0.22,0.5-0.49,0.5h-5.98c-0.27,0-0.5-0.23-0.5-0.5v-5.97  c0-0.27,0.23-0.5,0.5-0.5h5.98c0.27,0,0.49,0.23,0.49,0.5V78.85z M51.99,69.4v0.5v0.49c0,0.28,0.22,0.5,0.5,0.5h7.97  c0.27,0,0.49-0.22,0.49-0.5V69.9v-0.5v-6.96c0-0.28-0.22-0.5-0.49-0.5h-7.47h-0.5c-0.28,0-0.5,0.22-0.5,0.5V69.4z M59.96,68.9  c0,0.28-0.22,0.5-0.5,0.5h-5.97c-0.28,0-0.5-0.22-0.5-0.5v-5.97c0-0.27,0.22-0.49,0.5-0.49h5.97c0.28,0,0.5,0.22,0.5,0.49V68.9z   M61.95,69.4v0.5v0.49c0,0.28,0.22,0.5,0.5,0.5h7.96c0.28,0,0.5-0.22,0.5-0.5V69.9v-0.5v-6.96c0-0.28-0.22-0.5-0.5-0.5h-7.46h-0.5  c-0.28,0-0.5,0.22-0.5,0.5V69.4z M69.92,68.9c0,0.28-0.23,0.5-0.5,0.5h-5.98c-0.27,0-0.49-0.22-0.49-0.5v-5.97  c0-0.27,0.22-0.49,0.49-0.49h5.98c0.27,0,0.5,0.22,0.5,0.49V68.9z M71.91,69.4v0.5v0.49c0,0.28,0.22,0.5,0.5,0.5h7.96  c0.28,0,0.5-0.22,0.5-0.5V69.9v-0.5v-6.96c0-0.28-0.22-0.5-0.5-0.5H72.9h-0.49c-0.28,0-0.5,0.22-0.5,0.5V69.4z M79.88,68.9  c0,0.28-0.23,0.5-0.5,0.5H73.4c-0.27,0-0.5-0.22-0.5-0.5v-5.97c0-0.27,0.23-0.49,0.5-0.49h5.98c0.27,0,0.5,0.22,0.5,0.49V68.9z   M81.87,69.4v0.5v0.49c0,0.28,0.22,0.5,0.5,0.5h7.96c0.28,0,0.5-0.22,0.5-0.5V69.9v-0.5v-6.96c0-0.28-0.22-0.5-0.5-0.5h-7.47h-0.49  c-0.28,0-0.5,0.22-0.5,0.5V69.4z M89.83,68.9c0,0.28-0.22,0.5-0.49,0.5h-5.98c-0.27,0-0.5-0.22-0.5-0.5v-5.97  c0-0.27,0.23-0.49,0.5-0.49h5.98c0.27,0,0.49,0.22,0.49,0.49V68.9z M51.99,59.45v0.5v0.5c0,0.27,0.22,0.49,0.5,0.49h7.97  c0.27,0,0.49-0.22,0.49-0.49v-0.5v-0.5v-6.96c0-0.28-0.22-0.5-0.49-0.5h-7.47h-0.5c-0.28,0-0.5,0.22-0.5,0.5V59.45z M59.96,58.96  c0,0.27-0.22,0.49-0.5,0.49h-5.97c-0.28,0-0.5-0.22-0.5-0.49v-5.97c0-0.28,0.22-0.5,0.5-0.5h5.97c0.28,0,0.5,0.22,0.5,0.5V58.96z   M61.95,59.45v0.5v0.5c0,0.27,0.22,0.49,0.5,0.49h7.96c0.28,0,0.5-0.22,0.5-0.49v-0.5v-0.5v-6.96c0-0.28-0.22-0.5-0.5-0.5h-7.46  h-0.5c-0.28,0-0.5,0.22-0.5,0.5V59.45z M69.92,58.96c0,0.27-0.23,0.49-0.5,0.49h-5.98c-0.27,0-0.49-0.22-0.49-0.49v-5.97  c0-0.28,0.22-0.5,0.49-0.5h5.98c0.27,0,0.5,0.22,0.5,0.5V58.96z M71.91,59.45v0.5v0.5c0,0.27,0.22,0.49,0.5,0.49h7.96  c0.28,0,0.5-0.22,0.5-0.49v-0.5v-0.5v-6.96c0-0.28-0.22-0.5-0.5-0.5H72.9h-0.49c-0.28,0-0.5,0.22-0.5,0.5V59.45z M79.88,58.96  c0,0.27-0.23,0.49-0.5,0.49H73.4c-0.27,0-0.5-0.22-0.5-0.49v-5.97c0-0.28,0.23-0.5,0.5-0.5h5.98c0.27,0,0.5,0.22,0.5,0.5V58.96z   M81.87,59.45v0.5v0.5c0,0.27,0.22,0.49,0.5,0.49h7.96c0.28,0,0.5-0.22,0.5-0.49v-0.5v-0.5v-6.96c0-0.28-0.22-0.5-0.5-0.5h-7.47  h-0.49c-0.28,0-0.5,0.22-0.5,0.5V59.45z M89.83,58.96c0,0.27-0.22,0.49-0.49,0.49h-5.98c-0.27,0-0.5-0.22-0.5-0.49v-5.97  c0-0.28,0.23-0.5,0.5-0.5h5.98c0.27,0,0.49,0.22,0.49,0.5V58.96z M51.99,49.51V50v0.5c0,0.27,0.22,0.5,0.5,0.5h7.97  c0.27,0,0.49-0.23,0.49-0.5V50v-0.49v-6.97c0-0.27-0.22-0.5-0.49-0.5h-7.47h-0.5c-0.28,0-0.5,0.23-0.5,0.5V49.51z M59.96,49.01  c0,0.27-0.22,0.5-0.5,0.5h-5.97c-0.28,0-0.5-0.23-0.5-0.5v-5.97c0-0.28,0.22-0.5,0.5-0.5h5.97c0.28,0,0.5,0.22,0.5,0.5V49.01z   M61.95,49.51V50v0.5c0,0.27,0.22,0.5,0.5,0.5h7.96c0.28,0,0.5-0.23,0.5-0.5V50v-0.49v-6.97c0-0.27-0.22-0.5-0.5-0.5h-7.46h-0.5  c-0.28,0-0.5,0.23-0.5,0.5V49.51z M69.92,49.01c0,0.27-0.23,0.5-0.5,0.5h-5.98c-0.27,0-0.49-0.23-0.49-0.5v-5.97  c0-0.28,0.22-0.5,0.49-0.5h5.98c0.27,0,0.5,0.22,0.5,0.5V49.01z M71.91,49.51V50v0.5c0,0.27,0.22,0.5,0.5,0.5h7.96  c0.28,0,0.5-0.23,0.5-0.5V50v-0.49v-6.97c0-0.27-0.22-0.5-0.5-0.5H72.9h-0.49c-0.28,0-0.5,0.23-0.5,0.5V49.51z M79.88,49.01  c0,0.27-0.23,0.5-0.5,0.5H73.4c-0.27,0-0.5-0.23-0.5-0.5v-5.97c0-0.28,0.23-0.5,0.5-0.5h5.98c0.27,0,0.5,0.22,0.5,0.5V49.01z   M81.87,49.51V50v0.5c0,0.27,0.22,0.5,0.5,0.5h7.96c0.28,0,0.5-0.23,0.5-0.5V50v-0.49v-6.97c0-0.27-0.22-0.5-0.5-0.5h-7.47h-0.49  c-0.28,0-0.5,0.23-0.5,0.5V49.51z M89.83,49.01c0,0.27-0.22,0.5-0.49,0.5h-5.98c-0.27,0-0.5-0.23-0.5-0.5v-5.97  c0-0.28,0.23-0.5,0.5-0.5h5.98c0.27,0,0.49,0.22,0.49,0.5V49.01z M24.11,20.66c-0.28,0-0.5,0.22-0.5,0.49V31.6  c0,0.27,0.22,0.5,0.5,0.5H50.5c0.27,0,0.5-0.23,0.5-0.5V21.15c0-0.27-0.23-0.49-0.5-0.49H24.11z M26.6,23.14h21.41v6.47H26.6V23.14z   M57.97,20.66v0.99h5.47v-0.99H57.97z M65.93,20.66v0.99h5.48v-0.99H65.93z M73.9,20.66v0.99h5.48v-0.99H73.9z M81.87,20.66v0.99  h5.47v-0.99H81.87z M57.97,22.65v0.99h5.47v-0.99H57.97z M65.93,22.65v0.99h5.48v-0.99H65.93z M73.9,22.65v0.99h5.48v-0.99H73.9z   M81.87,22.65v0.99h5.47v-0.99H81.87z M57.97,24.64v0.99h5.47v-0.99H57.97z M65.93,24.64v0.99h5.48v-0.99H65.93z M73.9,24.64v0.99  h5.48v-0.99H73.9z M81.87,24.64v0.99h5.47v-0.99H81.87z M57.97,26.63v0.99h5.47v-0.99H57.97z M65.93,26.63v0.99h5.48v-0.99H65.93z   M73.9,26.63v0.99h5.48v-0.99H73.9z M81.87,26.63v0.99h5.47v-0.99H81.87z M57.97,28.62v0.99h5.47v-0.99H57.97z M65.93,28.62v0.99  h5.48v-0.99H65.93z M73.9,28.62v0.99h5.48v-0.99H73.9z M81.87,28.62v0.99h5.47v-0.99H81.87z M23.3,78.17v2.36h-3.36v-2.36H23.3z   M23.8,77.67h-4.36v3.36h4.36V77.67z M25.79,60.26v2.36h-3.36v-2.36H25.79z M26.29,59.76h-4.36v3.36h4.36V59.76z M28.28,78.17v2.36  h-3.36v-2.36H28.28z M28.78,77.67h-4.36v3.36h4.36V77.67z M33.26,78.17v2.36H29.9v-2.36H33.26z M33.76,77.67H29.4v3.36h4.36V77.67z   M38.24,78.17v2.36h-3.36v-2.36H38.24z M38.73,77.67h-4.35v3.36h4.35V77.67z M43.22,78.17v2.36h-3.37v-2.36H43.22z M43.71,77.67  h-4.35v3.36h4.35V77.67z M23.3,72.2v1.37h-3.36V72.2H23.3z M23.8,71.7h-4.36v2.36h4.36V71.7z M28.28,72.2v1.37h-3.36V72.2H28.28z   M28.78,71.7h-4.36v2.36h4.36V71.7z M23.3,66.73v1.36h-3.36v-1.36H23.3z M23.8,66.23h-4.36v2.36h4.36V66.23z M28.28,66.73v1.36  h-3.36v-1.36H28.28z M28.78,66.23h-4.36v2.36h4.36V66.23z M33.26,72.2v1.37H29.9V72.2H33.26z M33.76,71.7H29.4v2.36h4.36V71.7z   M38.24,72.2v1.37h-3.36V72.2H38.24z M38.73,71.7h-4.35v2.36h4.35V71.7z M43.22,72.2v1.37h-3.37V72.2H43.22z M43.71,71.7h-4.35v2.36  h4.35V71.7z M40.17,49.63c0,2.24-1.62,3.48-3.37,3.48c-2.24,0-3.36-1.62-3.36-3.36c0-1.86,1.12-3.35,3.36-3.35  C38.92,46.4,40.17,47.89,40.17,49.63z M40.79,49.75c0-2.11-1.74-3.98-3.99-3.98c-2.36,0-3.98,1.99-3.98,3.98s1.62,3.98,3.98,3.98  C38.67,53.73,40.79,51.99,40.79,49.75z M42.16,49.75c0,3.11-2.24,5.35-5.36,5.35c-1.74,0-4.23-0.87-5.1-3.36  c0-0.25-0.25-0.62-0.25-0.87v-2.24c0.75-3.1,2.99-4.22,5.23-4.22C39.92,44.41,42.16,46.52,42.16,49.75z M42.78,49.75  c0-2.98-2.74-5.96-6.1-5.96c-3.24,0-5.85,2.98-5.85,5.96c0,2.99,2.61,5.97,5.97,5.97C39.79,55.72,42.78,52.99,42.78,49.75z   M34.16,40.86v1.37h-2.74v-1.37H34.16z M34.53,40.37h-3.48c-0.37,0.37-0.25,0.62-0.25,1.12c0,0.12-0.12,0.99,0.25,1.24h3.48  c0.25-0.5,0.25-0.75,0.25-1.24C34.78,41.36,34.78,40.49,34.53,40.37z M29.27,34.89v1.37h-2.36v-1.37H29.27z M29.77,34.4h-3.36v2.36  h3.36V34.4z M32.76,34.89v1.37h-2.37v-1.37H32.76z M33.26,34.4H29.9v2.36h3.36V34.4z M36.24,34.89v1.37h-2.36v-1.37H36.24z   M36.74,34.4h-3.36v2.36h3.36V34.4z M39.73,34.89v1.37h-2.36v-1.37H39.73z M40.23,34.4h-3.36v2.36h3.36V34.4z M43.22,34.89v1.37  h-2.37v-1.37H43.22z M43.71,34.4h-3.36v2.36h3.36V34.4z M46.7,34.89v1.37h-2.36v-1.37H46.7z M47.2,34.4h-3.36v2.36h3.36V34.4z   M12.25,40.86v1.37H9.51v-1.37H12.25z M12.63,40.37H9.14c-0.37,0.37-0.25,0.62-0.25,1.12c0,0.12-0.12,0.99,0.25,1.24h3.49  c0.24-0.5,0.24-0.75,0.24-1.24C12.87,41.36,12.87,40.49,12.63,40.37z M17.23,40.86v1.37h-2.74v-1.37H17.23z M17.6,40.37h-3.48  c-0.37,0.37-0.25,0.62-0.25,1.12c0,0.12-0.12,0.99,0.25,1.24h3.48c0.25-0.5,0.25-0.75,0.25-1.24C17.85,41.36,17.85,40.49,17.6,40.37  z M22.21,40.86v1.37h-2.74v-1.37H22.21z M22.58,40.37H19.1c-0.37,0.37-0.25,0.62-0.25,1.12c0,0.12-0.12,0.99,0.25,1.24h3.48  c0.25-0.5,0.25-0.75,0.25-1.24C22.83,41.36,22.83,40.49,22.58,40.37z M12.25,44.35v1.36H9.51v-1.36H12.25z M12.63,43.85H9.14  c-0.37,0.37-0.25,0.62-0.25,1.12c0,0.12-0.12,0.99,0.25,1.24h3.49c0.24-0.5,0.24-0.75,0.24-1.24  C12.87,44.84,12.87,43.97,12.63,43.85z M17.23,44.35v1.36h-2.74v-1.36H17.23z M17.6,43.85h-3.48c-0.37,0.37-0.25,0.62-0.25,1.12  c0,0.12-0.12,0.99,0.25,1.24h3.48c0.25-0.5,0.25-0.75,0.25-1.24C17.85,44.84,17.85,43.97,17.6,43.85z M22.21,44.35v1.36h-2.74v-1.36  H22.21z M22.58,43.85H19.1c-0.37,0.37-0.25,0.62-0.25,1.12c0,0.12-0.12,0.99,0.25,1.24h3.48c0.25-0.5,0.25-0.75,0.25-1.24  C22.83,44.84,22.83,43.97,22.58,43.85z M12.25,47.83v1.36H9.51v-1.36H12.25z M12.63,47.33H9.14c-0.37,0.37-0.25,0.62-0.25,1.12  c0,0.12-0.12,0.99,0.25,1.24h3.49c0.24-0.5,0.24-0.74,0.24-1.24C12.87,48.32,12.87,47.45,12.63,47.33z M17.23,47.83v1.36h-2.74  v-1.36H17.23z M17.6,47.33h-3.48c-0.37,0.37-0.25,0.62-0.25,1.12c0,0.12-0.12,0.99,0.25,1.24h3.48c0.25-0.5,0.25-0.74,0.25-1.24  C17.85,48.32,17.85,47.45,17.6,47.33z M22.21,47.83v1.36h-2.74v-1.36H22.21z M22.58,47.33H19.1c-0.37,0.37-0.25,0.62-0.25,1.12  c0,0.12-0.12,0.99,0.25,1.24h3.48c0.25-0.5,0.25-0.74,0.25-1.24C22.83,48.32,22.83,47.45,22.58,47.33z M12.25,51.31v1.37H9.51v-1.37  H12.25z M12.63,50.81H9.14c-0.37,0.37-0.25,0.62-0.25,1.12c0,0.12-0.12,0.99,0.25,1.24h3.49c0.24-0.49,0.24-0.74,0.24-1.24  C12.87,51.81,12.87,50.94,12.63,50.81z M17.23,51.31v1.37h-2.74v-1.37H17.23z M17.6,50.81h-3.48c-0.37,0.37-0.25,0.62-0.25,1.12  c0,0.12-0.12,0.99,0.25,1.24h3.48c0.25-0.49,0.25-0.74,0.25-1.24C17.85,51.81,17.85,50.94,17.6,50.81z M22.21,51.31v1.37h-2.74  v-1.37H22.21z M22.58,50.81H19.1c-0.37,0.37-0.25,0.62-0.25,1.12c0,0.12-0.12,0.99,0.25,1.24h3.48c0.25-0.49,0.25-0.74,0.25-1.24  C22.83,51.81,22.83,50.94,22.58,50.81z M42.13,40.86v1.37h-2.74v-1.37H42.13z M42.5,40.37h-3.48c-0.38,0.37-0.25,0.62-0.25,1.12  c0,0.12-0.13,0.99,0.25,1.24h3.48c0.25-0.5,0.25-0.75,0.25-1.24C42.75,41.36,42.75,40.49,42.5,40.37z M15.27,24.89  c0,0.62-0.37,0.87-0.87,0.87c-0.75,0-0.87-0.38-0.87-0.87c0-0.4,0.07-0.71,0.47-0.83v1.05h0.68v-1.07  C15.1,24.14,15.27,24.47,15.27,24.89z M15.89,24.89c0-0.75-0.87-1.5-1.49-1.5c-0.75,0-1.5,0.75-1.5,1.5c0,0.62,0.75,1.49,1.5,1.49  C15.02,26.38,15.89,25.51,15.89,24.89z M16.76,24.89c0,1.49-0.87,2.36-2.36,2.36c-1.5,0-2.37-0.87-2.37-2.36  c0-1.5,0.87-2.37,2.24-2.37C15.89,22.52,16.76,23.39,16.76,24.89z M17.39,24.89c0-1.37-1.37-2.99-2.99-2.99  c-1.74,0-2.99,1.62-2.99,2.99c0,1.24,1.25,2.98,2.99,2.98C15.64,27.87,17.39,26.5,17.39,24.89z M15.27,33.34  c0,0.62-0.37,0.87-0.87,0.87c-0.75,0-0.87-0.37-0.87-0.87c0-0.39,0.07-0.71,0.47-0.82v1.13h0.68V32.5  C15.1,32.6,15.27,32.92,15.27,33.34z M15.89,33.34c0-0.75-0.87-1.49-1.49-1.49c-0.75,0-1.5,0.74-1.5,1.49c0,0.62,0.75,1.49,1.5,1.49  C15.02,34.83,15.89,33.96,15.89,33.34z M16.76,33.34c0,1.49-0.87,2.36-2.36,2.36c-1.5,0-2.37-0.87-2.37-2.36  c0-1.49,0.87-2.36,2.24-2.36C15.89,30.98,16.76,31.85,16.76,33.34z M17.39,33.34c0-1.37-1.37-2.98-2.99-2.98  c-1.74,0-2.99,1.61-2.99,2.98c0,1.24,1.25,2.98,2.99,2.98C15.64,36.32,17.39,34.96,17.39,33.34z M32.45,59.49v7.19h8.1v-7.19H32.45z   M32.9,60.39h1.8V66h-1.8V60.39z M38.3,60.39h1.8V66h-1.8V60.39z M35.15,60.39h2.7v2.69h-2.7V60.39z M35.15,63.76h2.7V66h-2.7V63.76  z M12.65,62.86v5.84H10.4v3.37h2.25v5.84h0.9v-5.84h2.25V68.7h-2.25v-5.84H12.65z M12.65,69.15h0.9h1.8v2.47h-1.8h-0.9h-1.8v-2.47  H12.65z M11.07,59.26v2.47h4.05v-2.47H11.07z M11.52,59.71h3.16v1.57h-3.16V59.71z M12.54,58.03c0,0.31,0.25,0.56,0.56,0.56  s0.56-0.25,0.56-0.56c0-0.31-0.25-0.56-0.56-0.56S12.54,57.72,12.54,58.03z M9.05,55.67v0.67v24.49v0.68H9.5h7.2h0.45v-0.68V56.34  v-0.67H16.7H9.5H9.05z M9.5,80.83V56.34h7.2v24.49H9.5z M45.72,71.62v2.25h3.83v-2.25H45.72z M46.17,72.07h2.93v1.35h-2.93V72.07z   M45.72,75.22v2.24h3.83v-2.24H45.72z M46.17,75.66h2.93v1.35h-2.93V75.66z M45.72,78.59v2.24h3.83v-2.24H45.72z M46.17,79.03h2.93  v1.35h-2.93V79.03z M94.5,15.5v70h-89v-70H94.5z M95,15H5v71h90V15z"></path></svg>