<?xml version="1.0" encoding="utf-8"?>
<!-- Generator: Adobe Illustrator 21.1.0, SVG Export Plug-In . SVG Version: 6.00 Build 0)  -->
<svg version="1.1" id="Layer_1" xmlns="http://www.w3.org/2000/svg" xmlns:xlink="http://www.w3.org/1999/xlink" x="0px" y="0px"
	 viewBox="0 0 500 500" style="enable-background:new 0 0 500 500;" xml:space="preserve">
<style type="text/css">
	.st0{fill:#160C0C;}
</style>
<g>
	<!-- <path class="st0" d="M164.6,263l-0.7,0.7l0.7,0.6c10.9,8.2,20.8,11,29.3,11c18.5,0,30.2-13.3,30.3-13.5l0.5-0.6l-0.6-0.5
		C193.2,234.6,164.9,262.7,164.6,263z M166.4,263.5c2.3-2.1,10.1-8.6,21-11.2c-3.4,2-5.7,5.8-5.7,10.1c0,4.8,2.9,9,7.1,10.8
		C182,272.3,174.5,269.4,166.4,263.5z M197.5,273.4c4.5-1.7,7.7-5.9,7.7-11c0-5.2-3.4-9.6-8.1-11.2c7.8,0.1,16.5,2.8,25.5,10.1
		C220.2,263.7,211.1,272.1,197.5,273.4z"/>
	<path class="st0" d="M279.8,260l-0.6,0.5l0.5,0.6c0.2,0.2,11.9,13.5,30.3,13.5c8.5,0,18.4-2.8,29.3-11l0.7-0.6l-0.7-0.7
		C339.1,262.1,310.8,233.9,279.8,260z M307.3,273c-14.1-0.9-23.5-9.8-25.8-12.3c9.3-7.6,18.2-10.2,26.1-10.3
		c-5,1.3-8.7,5.9-8.7,11.3C298.9,267.1,302.4,271.6,307.3,273z M314.7,272.8c4.5-1.7,7.7-5.9,7.7-11c0-4.5-2.6-8.5-6.4-10.4
		c11.2,2.5,19.2,9.3,21.6,11.5C329.2,269,321.5,271.9,314.7,272.8z"/> -->
	<path class="st0" d="M178.2,330.5c7.8-4.8,9.4,3.4,9.4,3.4s2.4-7.5-5.2-9.2c-7.3-1.7-16.1,6.1-16.1,16.2c0,6,6,16.5,28.6,16.5
		c22.5,0,48.2-11.8,55.9-15.6c7.8,3.8,33.4,15.6,55.9,15.6c22.5,0,28.6-10.5,28.6-16.5c0-10.2-8.9-17.9-16.1-16.2
		c-7.7,1.7-5.2,9.2-5.2,9.2s1.6-8.2,9.4-3.4c7.8,4.8,2.7,16.3-10.2,16.3c-23.2,0-49.3-33.8-62.4-20.8c-13.1-13-39.2,20.8-62.4,20.8
		C175.5,346.9,170.4,335.4,178.2,330.5z"/>
	<path class="st0" d="M241.6,319.4c1.7-1.1,2-3.1-1.5-2.6c-1.3,0.2-2.5,0.7-3.6,1.5c-1.5,1.1-3.6,2.7-2.3,3.2
		C236,322.3,240.6,320.1,241.6,319.4z"/>
	<path class="st0" d="M266.9,321.5c1.2-0.5-0.8-2.2-2.3-3.2c-1.1-0.8-2.3-1.3-3.6-1.5c-3.5-0.5-3.3,1.5-1.5,2.6
		C260.4,320.1,265,322.3,266.9,321.5z"/>
	<path class="st0" d="M356.2,270.5c-3.3,26.4-11.2,48-21.1,65.4c0.6,1.7,0.9,3.6,0.9,5.6c0,4.5-3.4,11.6-14.7,14.8
		c-23.5,29.4-50.5,41-55.2,41c-7.9,0-7.5-16.2-7.5-16.2s-7-0.7-9.3-0.7c-2.4,0-9.7,0.7-9.7,0.7s0.4,16.2-7.5,16.2
		c-4.6,0-29.6-11.9-52-40.7c-11.2-3.2-14.6-10.2-14.6-14.8c0-2,0.4-4,1-5.8c-10-18-18.2-40.3-21.6-67.8c-1-7.2-1.7-12.6-2-17h-6.9
		c4.3,28.5,6.3,60.8,8.1,86.5c2.6,2.8,5.1,5.8,6.7,8.5l-6.4-3.8c1.5,20.8,3,36.6,5.5,41.4c4.5,8.3,28.4,31.3,52.3,49.4l-2.3-11.3
		c0,0,5.5,12,9.1,16.3c15.5,11.1,30.2,19.3,38.9,19.3c0.8,0,1.3-0.5,1.3-0.5s0.5,0.5,1.3,0.5c9.2,0,25.3-9.2,41.9-21.3
		c3.7-5.7,7.5-13.9,7.5-13.9l-2,9.8c23.4-17.8,46.2-39.9,50.2-48.3c3.4-7.2,6.1-23.2,8.1-41.2l-8.5,5c2.1-3.5,5.7-7.3,9.1-10.5
		c3.5-33.3,4.9-70.6,4.9-70.6c0.4-4.8,0.9-10,1.6-15.3h-5.3C357.9,256.9,357.3,263.2,356.2,270.5z"/>
	<path class="st0" d="M386.7,174.1c0,0-5.3,6.4-12.5,6.4c0,0,22.5-42.5-2.8-69.2c0,0,2.5,30-10.6,41.4c0,0,19.2-67-37.3-89.9
		c0,0,17.3,21.2,16.7,41.5c-0.9-2.5-2.2-5.1-3.9-7.8c-20.7-32.5-48.7-38-48.7-38s15.5,17.3,17.6,25.2c0,0-19.5-26.4-59.7-30.7
		c-39.9-4.3-51.7,6.3-51.7,6.3s42.2,0.4,72.8,35.2c0,0-74.2-58.1-130.8-0.8c0,0,44.9-14,64.5,16c-35.9-22.5-75.5-5.4-75.5-5.4
		s-0.2,40,16.6,59.5c0,0-9.7-7.3-17.8-29c0,0-21.9,11.9,1.2,70.1c2.8,7,5.1,15.4,7.1,24.5l-3.1,0v20.9h7h7h3.4c0,0-1,51.7,45.9,51.7
		c42.9,0,47.4-43.5,47.4-43.5l0,0c7.2-3.2,16.9-2.5,22.9,0l0,0c0,0,4.4,43.5,47.4,43.5c46.8,0,45.9-51.7,45.9-51.7h2.2h5.4h7.5
		v-20.9l-3.9,0c3.4-16,8-31,13.5-40.2C380.7,189.2,386.2,179.1,386.7,174.1z M230.3,262.8c-1.4,5.8-8.4,38-49.6,29.9
		c-33-6.4-24.4-55.5-24.4-55.5c4.3-4.6,50.8-9.6,70.2,0.8C233,241.5,230.8,260.7,230.3,262.8z M321.7,292.8
		c-41.2,8-48.1-24.1-49.6-29.9c-0.5-2.2-2.7-21.3,3.7-24.7c19.4-10.4,65.9-5.4,70.2-0.8C346.1,237.3,354.7,286.4,321.7,292.8z
		 M351.4,229.3c-24.5-14.1-82.6-1.8-86.2,3.6c-1.7,2.6-6.8,4.3-14,4.4c-7.1-0.1-12.2-1.8-14-4.4c-3.6-5.4-61.7-17.6-86.2-3.6l-6.3,0
		c0.2-1.1,0.4-2.2,0.6-3.4c6.8-36.7,13.4-63.5,8.6-75.5c0,0,85.9,41.6,188.3,0c0,0-7.8,14.6,2.6,43.3c5.2,14.2,9.6,23.9,11.8,35.6
		L351.4,229.3z"/>
</g>
</svg>
