<svg height='300px' width='300px'  fill="#000000" xmlns="http://www.w3.org/2000/svg" xmlns:xlink="http://www.w3.org/1999/xlink" version="1.1" x="0px" y="0px" viewBox="0 0 100 100" enable-background="new 0 0 100 100" xml:space="preserve"><path d="M85.846,25.639h-4.878V88.12h4.878c5.053,0,9.154-4.065,9.154-9.118V34.757C95,29.704,90.898,25.639,85.846,25.639z"></path><path d="M70.594,24.911v-5.879c0-3.961-3.174-7.153-7.135-7.153H35.14c-3.961,0-7.153,3.192-7.153,7.153v5.879  c0,0.239,0.014,0.495,0.037,0.728h-5.351V88.12h54.382V25.639h-6.498C70.58,25.406,70.594,25.15,70.594,24.911z M34.539,19.669  c0-0.594,0.13-0.783,0.601-0.783h28.319c0.47,0,0.582,0.188,0.582,0.783v5.969H34.539V19.669z M32.591,35.776  c2.616,0,4.732,2.116,4.732,4.732s-2.117,4.732-4.732,4.732c-2.615,0-4.732-2.116-4.732-4.732S29.976,35.776,32.591,35.776z   M24.965,55.323c0-2.615,2.135-4.732,4.75-4.732c2.616,0,4.732,2.117,4.732,4.732s-2.117,4.751-4.732,4.751  C27.101,60.074,24.965,57.938,24.965,55.323z M52.393,76.745l-3.567,6.188c-0.266,0.461-0.849,0.612-1.31,0.346l-18.31-10.575  c-0.461-0.266-0.612-0.85-0.346-1.31l3.567-6.188c0.167-0.288,0.457-0.451,0.764-0.473c0.185-0.014,0.374,0.027,0.546,0.127  l18.309,10.574C52.509,75.701,52.659,76.284,52.393,76.745z M65.134,74.488c-4.208,0-7.626-3.419-7.626-7.626  c0-4.208,3.418-7.626,7.626-7.626c4.207,0,7.607,3.418,7.607,7.626C72.741,71.069,69.341,74.488,65.134,74.488z M71.758,37.633  c0.267,0.461,0.098,1.044-0.363,1.311l-18.31,10.556c-0.461,0.267-1.044,0.115-1.311-0.346l-3.567-6.188  c-0.266-0.462-0.115-1.044,0.346-1.311l18.31-10.556c0.116-0.067,0.24-0.112,0.364-0.127v0c0.371-0.046,0.746,0.128,0.946,0.474  L71.758,37.633z"></path><path d="M5,34.757v44.245c0,5.054,4.065,9.118,9.118,9.118h4.605V25.639h-4.605C9.065,25.639,5,29.704,5,34.757z"></path></svg>